<svg xmlns="http://www.w3.org/2000/svg" viewBox="0 0 140 32" fill="#ffff" aria-hidden="true"
    style="position:absolute;width:0;height:0;overflow:hidden">

    <path
        d="M3.484 26.475c0-.238.051-.569.154-.993.102-.435.241-.771.415-1.009l1.214-1.738c.369-.528.697-.983.984-1.366.287-.383.574-.724.861-1.024 1.752-1.914 3.007-3.342 3.766-4.283.758-.952 1.137-1.614 1.137-1.986a.635.635 0 0 0-.338-.574c-.225-.145-.523-.217-.891-.217-.758 0-1.711.274-2.859.822-1.148.538-2.49 1.242-4.027 2.111-1.527.869-2.377 1.304-2.551 1.304-.277 0-.415-.202-.415-.605 0-.341.108-.828.323-1.459.164-.683.297-1.21.4-1.583.102-.383.272-.724.507-1.024.246-.3.646-.626 1.199-.978.564-.352 1.424-.833 2.582-1.443l.154.574c.963-.393 1.87-.693 2.721-.9.861-.207 1.593-.31 2.198-.31 1.189 0 2.029.207 2.521.621.502.404.753 1.288.753 2.654 0 .745-.108 1.366-.323 1.862s-.635 1.19-1.26 2.08c-1.424 2.09-2.495 3.538-3.212 4.345-2.08 2.4-3.12 3.802-3.12 4.206 0 .228.149.341.446.341.246 0 .594-.176 1.045-.528s.994-.859 1.629-1.521c.635-.662 1.517-1.609 2.644-2.84a87.833 87.833 0 0 0 3.028-3.445 78.823 78.823 0 0 0 2.044-2.561c.533-.714.815-1.097.845-1.148.553-.683 1.122-1.242 1.706-1.676.594-.445.974-.667 1.137-.667.123 0 .266.114.43.341s.302.497.415.807c.123.31.184.548.184.714 0 .052-.123.305-.369.76-.246.445-.512.91-.799 1.397-.287.476-.748 1.21-1.383 2.204-1.394 2.183-2.459 4.019-3.197 5.509-.738 1.479-1.107 2.452-1.107 2.918 0 .166.056.321.169.466.123.134.246.202.369.202.164 0 .461-.129.891-.388.43-.269.907-.652 1.43-1.148.687-.662 1.312-1.35 1.875-2.064s1.122-1.511 1.675-2.39c.553-.879 1.045-1.712 1.476-2.498s.866-1.614 1.306-2.483l-.261-.791a1.569 1.569 0 0 1-.061-.481c0-.155.302-.657.907-1.505.605-.859 1.004-1.288 1.199-1.288.215 0 .395.16.538.481.154.31.231.626.231.947 0 .352-.159 1.055-.476 2.111-.307 1.045-.794 2.312-1.46 3.802a34.788 34.788 0 0 1-2.444 4.547c-.84 1.345-1.742 2.498-2.705 3.461-.953.952-1.814 1.661-2.582 2.126s-1.337.698-1.706.698c-.42 0-.861-.186-1.322-.559-.379-.331-.651-.626-.815-.885-.154-.269-.256-.559-.307-.869s-.077-.672-.077-1.086c0-.879.241-1.909.722-3.088s1.199-2.649 2.152-4.407c-2.982 3.662-5.293 6.327-6.932 7.992-1.629 1.666-2.823 2.498-3.581 2.498-.502 0-.927-.3-1.276-.9-.348-.61-.523-1.34-.523-2.188zM34.624 24.07v1.04c-.676.621-1.219 1.035-1.629 1.241s-.999.29-1.768.248c-1.332 1.593-2.505 2.39-3.52 2.39-.574 0-1.096-.191-1.568-.574s-.851-.905-1.137-1.567c-.277-.662-.415-1.402-.415-2.219 0-.662.215-1.397.646-2.204a10.007 10.007 0 0 1 1.691-2.25 9.468 9.468 0 0 1 2.229-1.692c.789-.434 1.522-.652 2.198-.652.482 0 .861.078 1.137.233.277.145.415.352.415.621 0 .207-.118.445-.354.714.389.083.656.222.799.419.143.186.215.533.215 1.04 0 .497-.118 1.122-.354 1.878a9.143 9.143 0 0 1-.938 2.126l.277.279h.231c.174 0 .343-.041.507-.124.174-.093.328-.186.461-.279.133-.104.425-.326.876-.667zm-3.166-4.082c-.851.517-1.578.988-2.183 1.412a9.897 9.897 0 0 0-1.537 1.273c-.42.424-.702.854-.845 1.288-.256 1.159-.384 1.785-.384 1.878 0 .683.471 1.024 1.414 1.024.441 0 1.178-.383 2.213-1.148a4.142 4.142 0 0 1-.261-1.397c0-.652.133-1.314.4-1.986.266-.683.661-1.464 1.183-2.343z" />
    <path
        d="M34.44 25.296v-1.009c.553-.662.973-1.226 1.26-1.692-.328-.114-.569-.253-.722-.419-.143-.166-.215-.414-.215-.745 0-.372.154-.843.461-1.412s.687-1.102 1.137-1.598c.451-.497.861-.817 1.23-.962a.925.925 0 0 1 .415-.109c.205 0 .307.098.307.295 0 .176-.159.533-.476 1.071 2.111-.331 3.443-.497 3.996-.497.215 0 .364.021.446.062.174.093.318.31.43.652s.169.683.169 1.024c0 .217-.097.455-.292.714-.184.248-.507.616-.968 1.102-.543.59-.999 1.231-1.368 1.924s-.553 1.216-.553 1.567c0 .486.297.729.891.729.625 0 1.711-.641 3.258-1.924v1.04c-.85.9-1.552 1.609-2.106 2.126s-1.066.931-1.537 1.241c-.471.3-.891.45-1.26.45-.43 0-.789-.197-1.076-.59-.287-.403-.43-.983-.43-1.738 0-.445.113-.952.338-1.521s.553-1.185.984-1.847c.441-.672.932-1.34 1.476-2.002-.287.062-.61.129-.968.202-.359.062-.738.129-1.137.202s-.707.129-.922.171c-.635 1.283-1.558 2.447-2.767 3.492z" />
    <path
        d="M55.374 24.101v1.04c-1.148 1.355-2.111 2.385-2.89 3.088-.779.693-1.429 1.04-1.952 1.04-.502 0-.958-.15-1.368-.45-.4-.3-.763-.714-1.091-1.241-.318-.528-.697-1.262-1.137-2.204a57.845 57.845 0 0 0-1.414 1.831c-.42.559-.712.931-.876 1.117s-.313.279-.446.279c-.277 0-.477-.176-.599-.528-.123-.362-.184-.885-.184-1.567 0-.931.108-1.826.323-2.685.225-.869.543-1.712.953-2.53.42-.817.953-1.697 1.599-2.638a61.163 61.163 0 0 1 2.198-2.98c1.117-1.428 2.08-2.592 2.89-3.492.809-.91 1.511-1.593 2.106-2.049.605-.466 1.107-.698 1.506-.698.492 0 .738.222.738.667 0 .383-.907 1.764-2.721 4.144-1.814 2.369-4.457 5.607-7.931 9.715v1.335c2.326-2.514 4.196-4.381 5.61-5.602 1.424-1.221 2.526-1.831 3.305-1.831.318 0 .564.191.738.574.174.372.261.807.261 1.304 0 1.014-.43 1.955-1.291 2.824-.861.859-2.183 1.847-3.966 2.964.307.466.579.807.815 1.024.236.207.533.31.891.31.318 0 .661-.109 1.03-.326s.743-.491 1.122-.822c.389-.331.984-.869 1.783-1.614zm-6.071.791c.389-.259.871-.657 1.445-1.195a11.194 11.194 0 0 0 1.491-1.692c.41-.59.615-1.081.615-1.474 0-.166-.072-.248-.215-.248-.389 0-1.061.378-2.014 1.133-.943.755-1.865 1.723-2.767 2.902.389 0 .871.191 1.445.574zM101.221 30.774c-.122 0-.307-.067-.553-.202a13.591 13.591 0 0 1-1.046-.698c-.451-.321-.963-.678-1.537-1.071L89.77 23.17l-2.46 3.274c0 .279-.035.491-.107.636-.072.134-.225.326-.461.574-.563.59-1.045 1.04-1.445 1.35-.39.31-.743.466-1.061.466a.505.505 0 0 1-.399-.202.665.665 0 0 1-.169-.466c0-.248.143-.579.431-.993l4.503-5.649c-.266-.424-.399-.859-.399-1.304 0-.455.123-.843.369-1.164.256-.321.548-.579.877-.776s1.235-.693 2.72-1.49c2.111-2.824 3.167-4.407 3.167-4.749 0-.228-.134-.341-.399-.341-.277 0-.892.165-1.845.497-.943.331-2.188.843-3.735 1.536-1.537.683-3.361 1.562-5.472 2.638a1.141 1.141 0 0 1-.599.124.878.878 0 0 1-.554-.264c-.154-.166-.23-.383-.23-.652 0-.083.02-.181.061-.295.031-.114.087-.29.169-.528l.215-.652c.021-.062.067-.285.138-.667a3.44 3.44 0 0 1 .4-1.04c.184-.321.497-.672.938-1.055.451-.383 1.091-.786 1.921-1.21.154-.093.298-.15.431-.171.134-.031.2.005.2.109 0 .031-.154.16-.461.388-.297.217-.625.579-.984 1.086 2.993-1.055 5.195-1.795 6.609-2.219 1.425-.434 2.567-.652 3.427-.652.472 0 .866.326 1.184.978.317.641.477 1.06.477 1.257 0 .29-.113.616-.338.978l-2.46 3.724a228.025 228.025 0 0 0 4.534-2.312c1.087-.579 2.265-1.205 3.535-1.878a103.446 103.446 0 0 1 2.413-1.273c.338-.176.559-.264.661-.264.236 0 .353.109.353.326 0 .124-.179.466-.538 1.024a9.409 9.409 0 0 1-1.168 1.49c-.431.434-.789.652-1.076.652a.892.892 0 0 1-.261-.047 5.859 5.859 0 0 0-.292-.109c-1.384.724-3.08 1.583-5.088 2.576a485.234 485.234 0 0 1-4.734 2.328l-1.322 2.002 7.793 5.338c.717.486 1.235.874 1.553 1.164.328.29.568.605.722.947.164.341.246.771.246 1.288 0 .848-.179 1.273-.538 1.273z" />
    <path
        d="M104.833 21.323c1.558-1.428 3.069-2.488 4.534-3.181s2.598-1.04 3.397-1.04c.215 0 .415.093.599.279.184.176.328.383.431.621.113.238.169.414.169.528a.467.467 0 0 1-.215.419c-.144.083-.394.186-.753.31l.277.636c.113.258.2.471.261.636.062.155.093.295.093.419 0 .248-.251.714-.753 1.397-.492.672-.84 1.169-1.045 1.49-.195.321-.292.714-.292 1.179 0 .766.349 1.148 1.045 1.148.718 0 1.839-.678 3.366-2.033v.947c-2.592 2.907-4.447 4.361-5.564 4.361-.4 0-.687-.135-.861-.404-.164-.259-.246-.647-.246-1.164 0-.817.292-2.002.876-3.554-1.496 1.676-2.607 2.871-3.335 3.585-.728.704-1.327 1.055-1.798 1.055-.225 0-.507-.197-.845-.59s-.641-.9-.907-1.521a5.155 5.155 0 0 1-.384-1.955c0-.486.046-.89.138-1.21.093-.331.272-.667.538-1.009s.691-.791 1.276-1.35zm7.362-1.707c-2.664 1.231-4.565 2.276-5.702 3.135-1.127.859-1.691 1.743-1.691 2.654 0 .331.056.605.169.822.113.207.266.31.461.31.113 0 .313-.072.6-.217 1.076-.641 2.06-1.474 2.951-2.498.892-1.035 1.962-2.436 3.213-4.206z" />
    <path
        d="m117.821 24.132-.277 1.304a2.335 2.335 0 0 0-.061.559c0 .559.23.838.691.838.44 0 1.512-.869 3.213-2.607.01-.672.256-1.448.737-2.328.492-.879 1.03-1.65 1.614-2.312.595-.662 1.035-.993 1.322-.993.451 0 .677.3.677.9 0 .362-.088.807-.262 1.335a10.41 10.41 0 0 1-.769 1.692c-.338.6-.753 1.221-1.245 1.862.256.466.518.698.783.698.226 0 .472-.078.738-.233.277-.166.62-.414 1.03-.745v1.04c-.573.455-1.03.766-1.368.931-.328.166-.753.248-1.276.248-.205 0-.574-.14-1.107-.419-1.045 1.117-1.896 1.955-2.551 2.514-.656.548-1.189.823-1.599.823-.707 0-1.312-.424-1.814-1.273a5.581 5.581 0 0 1-.737-2.824c0-1.376.769-3.026 2.305-4.951.461-.579.83-.972 1.107-1.179.287-.217.609-.326.968-.326.307 0 .6.057.876.171s.415.248.415.404c0 .517-.344 1.278-1.03 2.281a12.475 12.475 0 0 1-2.383 2.592z" />
    <path
        d="M127.781 21.323c1.558-1.428 3.069-2.488 4.534-3.181s2.598-1.04 3.397-1.04c.215 0 .415.093.6.279.184.176.328.383.43.621.113.238.17.414.17.528a.466.466 0 0 1-.216.419c-.143.083-.394.186-.753.31l.276.636c.113.258.2.471.262.636.061.155.093.295.093.419 0 .248-.251.714-.753 1.397-.492.672-.84 1.169-1.045 1.49-.195.321-.292.714-.292 1.179 0 .766.349 1.148 1.045 1.148.717 0 1.839-.678 3.366-2.033v.947c-2.593 2.907-4.447 4.361-5.564 4.361-.4 0-.687-.135-.861-.404-.163-.259-.246-.647-.246-1.164 0-.817.292-2.002.876-3.554-1.496 1.676-2.608 2.871-3.335 3.585-.728.704-1.327 1.055-1.798 1.055-.226 0-.508-.197-.846-.59s-.64-.9-.906-1.521a5.137 5.137 0 0 1-.385-1.955c0-.486.047-.89.138-1.21.093-.331.271-.667.538-1.009s.692-.791 1.276-1.35zm7.363-1.707c-2.664 1.231-4.566 2.276-5.703 3.135-1.127.859-1.69 1.743-1.69 2.654 0 .331.056.605.169.822.113.207.266.31.461.31.113 0 .312-.072.6-.217 1.075-.641 2.059-1.474 2.951-2.498.891-1.035 1.962-2.436 3.213-4.206zM71.008 8.847l-.115.852c1.668.229 2.998.665 3.798 1.159.4.247.661.509.785.732s.141.39.058.609c-.167.438-.911 1.017-2.111 1.433s-2.811.693-4.593.744c-1.781.052-3.495-.128-4.873-.474s-2.415-.883-2.835-1.39c-.21-.254-.259-.446-.234-.637s.142-.416.411-.664c.539-.496 1.652-1.008 3.195-1.328l-.171-.842c-1.632.339-2.86.853-3.6 1.534-.37.341-.625.739-.682 1.19s.104.912.426 1.301c.644.777 1.813 1.304 3.283 1.673s3.25.555 5.104.501c1.854-.054 3.533-.34 4.842-.793s2.294-1.049 2.634-1.94c.17-.446.115-.938-.113-1.344s-.603-.742-1.085-1.039c-.963-.595-2.378-1.036-4.127-1.276z" />
    <path
        d="M63.215 10.584c-.402.148-.717.311-.959.517s-.429.493-.414.824c.015.331.216.598.469.796s.58.356.993.501c1.651.581 4.361.794 6.867.578 1.254-.108 2.309-.314 3.085-.593.388-.14.708-.295.959-.495s.46-.477.46-.824h-.853c0-.01.003.039-.134.148s-.386.243-.719.363c-.666.24-1.667.441-2.869.544-2.403.207-5.09-.03-6.517-.532-.357-.126-.61-.26-.749-.369s-.141-.167-.14-.157c.001.01-.013-.022.11-.126s.36-.239.703-.366l-.292-.809z" />
    <path
        d="M60.079 11.872c2.227 3.399 12.785 3.878 16.353.149-.342 5.669-.634 16.411-1.608 16.763-4.517 1.64-7.99 2.278-12.937.014-1.305-.591-1.45-11.083-1.846-16.753l.037-.174zM66.589.941l-.679.52c.534.714.708 1.379.673 2.069s-.298 1.417-.707 2.168l.024-.04c-.781 1.122-.856 2.175-.688 3.084s.52 1.694.612 2.457l.847-.105c-.114-.939-.48-1.74-.621-2.509s-.112-1.483.548-2.432l.012-.018.012-.022c.445-.817.768-1.66.813-2.537s-.208-1.781-.847-2.635zM68.596.941l-.679.52c.534.714.708 1.379.673 2.069s-.298 1.417-.707 2.168l.024-.04c-.781 1.122-.856 2.175-.688 3.084s.52 1.694.612 2.457l.847-.105c-.114-.939-.48-1.74-.621-2.509s-.112-1.483.548-2.432l.012-.018.012-.022c.445-.817.768-1.66.813-2.537s-.208-1.781-.847-2.635zM70.603.941l-.679.52c.534.714.708 1.379.673 2.069s-.298 1.417-.707 2.168l.024-.04c-.78 1.122-.855 2.175-.688 3.084s.52 1.694.612 2.457l.849-.105c-.113-.939-.483-1.74-.624-2.509s-.112-1.483.548-2.432l.015-.018.009-.022c.445-.817.769-1.66.813-2.537s-.208-1.781-.847-2.635z" />
    <path
        d="M77.458 14.609c-.514-.145-1.096-.157-1.635.095s-.982.763-1.23 1.448l1.318.489c.15-.415.325-.57.499-.652s.401-.094.67-.018c.535.151 1.103.728 1.203 1.085.466 2.165-.02 3.209-.606 4.437-.593 1.019-1.147 1.225-1.846 1.454-.687.226-1.057.911-.984 1.574s.689 1.287 1.51 1.384l.161-1.408c-.346-.041-.273-.094-.277-.129s.017-.071.024-.074c.783-.257 1.853-.742 2.634-2.097l.015-.025.013-.025c.609-1.275 1.279-2.885.725-5.424l-.003-.015-.003-.015c-.276-1.036-1.161-1.794-2.19-2.085z" />

</svg>