<svg width="40" height="40" viewBox="0 0 40 40" fill="none" xmlns="http://www.w3.org/2000/svg">
    <path
        d="M20 22C23.866 22 27 18.866 27 15C27 11.134 23.866 8 20 8C16.134 8 13 11.134 13 15C13 18.866 16.134 22 20 22Z"
        fill="white" />
    <path
        d="M10 0C4.47715 0 0 4.47715 0 10V30C0 33.7105 2.02617 36.9421 5.02734 38.668C5.02734 38.6706 5.02734 38.6733 5.02734 38.6759C5.08719 38.7103 5.14642 38.7443 5.20703 38.7775C5.22135 38.7854 5.23564 38.793 5.25 38.8009C5.51087 38.9419 5.77861 39.0716 6.05273 39.1896C6.08146 39.202 6.10982 39.2145 6.13867 39.2266C6.41541 39.3427 6.6996 39.4459 6.98828 39.5372C7.00854 39.5436 7.0285 39.5504 7.04883 39.5568C7.34521 39.6484 7.64764 39.7252 7.95508 39.7892C7.97012 39.7924 7.98494 39.796 8 39.799C8.00526 39.8001 8.01036 39.8019 8.01561 39.8028C8.31945 39.8642 8.62823 39.9104 8.94139 39.9435C8.9584 39.9453 8.97511 39.9476 8.99218 39.9491C8.998 39.9497 9.00393 39.9505 9.00975 39.9511C9.33466 39.9832 9.66469 39.9999 9.99803 39.9999C9.99737 39.9999 9.99869 39.9999 9.99803 39.9999H29.998C29.9974 39.9999 29.9987 39.9999 29.998 39.9999C29.9987 39.9999 30.0013 39.9999 30.0019 39.9999C30.3312 39.9998 30.6556 39.9825 30.9765 39.9511C30.9856 39.9502 30.9948 39.9501 31.0039 39.9491C31.0301 39.9465 31.0558 39.9423 31.082 39.9393C31.3862 39.9064 31.6871 39.8623 31.9824 39.8026C31.9862 39.8018 31.9903 39.8014 31.9941 39.8007C32.015 39.7965 32.0357 39.7912 32.0566 39.787C32.3428 39.7269 32.6237 39.6543 32.9004 39.5703C32.9088 39.5677 32.9173 39.565 32.9258 39.5623C32.9764 39.5468 33.0259 39.5298 33.0761 39.5135C33.3071 39.4385 33.5345 39.3544 33.7578 39.2635C33.8484 39.2268 33.9381 39.1895 34.0273 39.1502C34.2457 39.0537 34.46 38.9509 34.6699 38.8396C34.6784 38.8351 34.6868 38.8306 34.6953 38.826C34.76 38.7916 34.8229 38.7545 34.8867 38.7186C34.9151 38.7027 34.9444 38.688 34.9726 38.6717C34.9726 38.6705 34.9726 38.6692 34.9726 38.668C37.9738 36.9421 40 33.7105 40 30V10C40 4.47715 35.5228 0 30 0H10ZM11 2H29C33.9706 2 38 6.02944 38 11V29C38 31.8581 36.6633 34.4002 34.5859 36.0488C33.8091 32.7629 31.9463 29.8352 29.2989 27.7393C26.6516 25.6435 23.3746 24.5022 19.998 24.5C16.6222 24.5031 13.3461 25.6448 10.6995 27.7405C8.05299 29.8363 6.19077 32.7635 5.41406 36.0488C3.33671 34.4002 2 31.8581 2 29V11C2 6.02944 6.02944 2 11 2Z"
        fill="white" />
</svg>