<?xml version="1.0" encoding="UTF-8" standalone="no"?>
<svg viewBox="0 0 32 32" fill="none">
   <defs id="defs16" />
   <path style="color:#000000;fill:#ffffff;-inkscape-stroke:none"
      d="M 10,0 C 4.4773028,0 0,4.4773028 0,10 v 12 c 0,5.522697 4.4773028,10 10,10 h 12 c 5.522697,0 10,-4.477303 10,-10 V 10 C 32,4.4773028 27.522697,0 22,0 Z m 0,2 h 12 c 4.449293,0 8,3.5507072 8,8 v 12 c 0,4.449293 -3.550707,8 -8,8 H 10 C 5.5507072,30 2,26.449293 2,22 V 10 C 2,5.5507072 5.5507072,2 10,2 Z"
      id="rect2" />
   <path
      d="M12.9694 20.5361C11.9742 20.5361 11.1547 21.3557 11.1547 22.3509C11.1547 23.3462 11.9742 24.1657 12.9694 24.1657C13.9646 24.1657 14.7858 23.3462 14.7858 22.3509C14.7858 21.3557 13.9647 20.5361 12.9694 20.5361ZM12.9694 21.7861C13.2891 21.7861 13.5358 22.0313 13.5358 22.3509C13.5358 22.6707 13.2892 22.9157 12.9694 22.9157C12.6497 22.9157 12.4047 22.6707 12.4047 22.3509C12.4047 22.0313 12.6498 21.7861 12.9694 21.7861Z"
      fill="white" id="path4" />
   <path
      d="M19.4766 20.5361C18.4813 20.5361 17.6602 21.3557 17.6602 22.3509C17.6602 23.3462 18.4814 24.1657 19.4766 24.1657C20.4718 24.1657 21.2913 23.3461 21.2913 22.3509C21.2913 21.3557 20.4718 20.5361 19.4766 20.5361ZM19.4766 21.7861C19.7963 21.7861 20.0413 22.0313 20.0413 22.3509C20.0413 22.6707 19.7963 22.9157 19.4766 22.9157C19.1569 22.9157 18.9102 22.6706 18.9102 22.3509C18.9102 22.0313 19.157 21.7861 19.4766 21.7861Z"
      fill="white" id="path6" />
   <path
      d="M24.3284 10.7007L12.0514 10.7023C11.7062 10.7024 11.4264 10.9821 11.4264 11.3273C11.4264 11.6725 11.7062 11.9523 12.0514 11.9523L23.36 11.9507L22.3948 15.5119C22.1878 16.2781 21.497 16.8123 20.7005 16.8123H13.3323C12.9871 16.8123 12.7073 17.0922 12.7073 17.4373C12.7073 17.7825 12.9871 18.0623 13.3323 18.0623H20.7005C22.0587 18.0623 23.2483 17.1441 23.6009 15.839L24.7809 11.4884C24.8559 11.1213 24.7454 10.7539 24.3284 10.7007Z"
      fill="white" id="path8" />
   <path
      d="M6.83337 7.0415C6.66761 7.0415 6.50864 7.10735 6.39143 7.22456C6.27422 7.34177 6.20837 7.50074 6.20837 7.6665C6.20837 7.83226 6.27422 7.99124 6.39143 8.10845C6.50864 8.22566 6.66761 8.2915 6.83337 8.2915H8.31612C8.40594 8.2915 8.48767 8.3592 8.50492 8.45264C8.50541 8.45753 8.50595 8.46241 8.50655 8.46729L10.4532 17.8065C10.7458 19.1945 11.981 20.1958 13.3991 20.1958H21.267C21.4327 20.1958 21.5917 20.13 21.7089 20.0127C21.8261 19.8955 21.892 19.7366 21.892 19.5708C21.892 19.405 21.8261 19.2461 21.7089 19.1289C21.5917 19.0116 21.4327 18.9458 21.267 18.9458H13.3991C12.5678 18.9458 11.8493 18.3645 11.6771 17.5509V17.5493L9.73376 8.2264C9.60816 7.54606 9.012 7.0415 8.31612 7.0415H6.83337Z"
      fill="white" id="path10" />
</svg>