<?xml version="1.0" encoding="UTF-8" standalone="no"?>
<svg width="451" height="250" viewBox="0 0 451 250" version="1.1" xmlns="http://www.w3.org/2000/svg"
   xmlns:svg="http://www.w3.org/2000/svg">
   <path id="path2" style="fill:#e2d0ae;fill-opacity:1"
      d="M 130.10156 3.4707031 C 127.57918 3.373444 125.93833 4.5017169 126.31445 7.9238281 C 128.41945 27.026328 108.31641 26.801594 108.31641 92.496094 C 108.31641 102.08459 143.65714 207.73678 148.11914 217.30078 C 153.62783 229.09231 156.36364 240.15266 157.68555 250 L 309.9082 250 C 316.28004 227.03274 325.64235 201.46803 348.10938 174.22656 C 377.15938 139.00056 390.26989 147.63783 397.46289 138.17383 C 402.11289 132.03983 401.47262 123.03938 393.76562 119.73438 C 338.87462 96.18797 278.46895 116.89391 228.25195 184.25391 C 228.22164 184.29456 228.19434 184.33629 228.16406 184.37695 C 228.53406 174.97884 228.68945 164.81958 228.68945 153.68359 L 228.70117 153.69531 C 228.70117 69.712015 196.40616 36.540892 144.78516 9.2265625 C 140.95516 7.2002125 134.30554 3.6328017 130.10156 3.4707031 z " />
   <path id="path4" style="stroke:none;fill:#e2d0ae;fill-opacity:1"
      d="M 97.427734 0.03125 C 96.485677 0.015015695 95.502234 0.1207445 94.482422 0.36328125 C 36.370222 14.220737 0.2890625 66.845597 0.2890625 150.8418 C 0.2890625 188.76531 10.224777 223.36504 26.554688 250 L 134.15625 250 C 131.55703 235.70605 127.19095 218.84778 122.02734 199.63672 C 113.00434 166.10072 87.425794 132.43975 90.433594 71.314453 C 92.664294 25.723853 108.35575 24.834678 108.46875 12.955078 C 108.53437 6.2187944 104.02214 0.14489013 97.427734 0.03125 z " />
   <path id="path6"
      d="M 417.54883 142.42188 C 416.5872 142.57616 415.65294 143.29989 414.78125 144.7832 C 405.03125 161.3572 389.05334 149.18991 349.77734 201.87891 C 347.34799 205.13869 339.65807 226.20791 331.47461 250 L 445.35742 250 C 451.87351 217.36988 443.79288 188.30785 428.81836 156.83789 C 426.40523 151.7622 421.71586 141.7533 417.54883 142.42188 z "
      style="fill:#e2d0ae;fill-opacity:1" />
   <defs id="defs15">
      <clipPath id="clip0_8540_475">
         <rect width="451" height="250" fill="white" id="rect12" />
      </clipPath>
   </defs>
</svg>