<?xml version="1.0" encoding="UTF-8" standalone="no"?>
<svg viewBox="0 0 36 32" fill="none" version="1.1" xmlns="http://www.w3.org/2000/svg"
   xmlns:svg="http://www.w3.org/2000/svg">
   <path fill="#e2d0ae" style="fill: var(--color1, #e2d0ae)"
      d="M18.261 12.277c0 6.71-0.631 9.242-5.043 11.047-1.313 0.537 0.335-2.277-1.386-5.965-0.356-0.764-3.176-9.204-3.176-9.97 0-5.248 1.604-5.23 1.436-6.756-0.080-0.729 0.985-0.155 1.474 0.104 4.119 2.182 6.696 4.832 6.696 11.541z">
   </path>
   <path fill="#e2d0ae" style="fill: var(--color1, #e2d0ae)"
      d="M7.229 5.697c-0.24 4.883 1.801 7.572 2.521 10.251 1.385 5.159 2.089 8.251-1.082 8.251-4.767 0-8.632-5.439-8.632-12.149s2.879-10.914 7.516-12.021c0.651-0.155 1.122 0.391 1.116 1.006-0.009 0.949-1.26 1.020-1.438 4.662z">
   </path>
   <path fill="#e2d0ae" style="fill: var(--color1, #e2d0ae)"
      d="M32.708 25.784c-4.007 5.382-6.025 7.036-10.642 5.849-1.373-0.353 1.628-1.626 2.451-5.613 0.17-0.826 2.949-9.279 3.406-9.893 3.134-4.209 4.409-3.237 5.187-4.561 0.371-0.632 0.883 0.464 1.12 0.963 2.001 4.21 2.486 7.874-1.521 13.256z">
   </path>
   <path fill="#e2d0ae" style="fill: var(--color1, #e2d0ae)"
      d="M27.79 13.918c-3.109 3.774-3.077 7.149-4.1 9.728-1.97 4.965-3.252 7.866-5.796 5.972-3.824-2.847-3.675-9.518 0.332-14.899s8.827-7.035 13.207-5.154c0.615 0.264 0.666 0.983 0.295 1.473-0.574 0.756-1.62 0.066-3.938 2.88z">
   </path>
</svg>