<?xml version="1.0" encoding="UTF-8" standalone="no"?>
<svg viewBox="0 0 40 40">
   <path style="color:#000000;fill:#dca135;-inkscape-stroke:none"
      d="M 20,0 C 8.9373083,0 0,8.9373083 0,20 0,31.062692 8.9373083,40 20,40 31.062692,40 40,31.062692 40,20 40,8.9373083 31.062692,0 20,0 Z m 0,2 c 9.989287,0 18,8.010713 18,18 0,9.989287 -8.010713,18 -18,18 C 10.010713,38 2,29.989287 2,20 2,10.010713 10.010713,2 20,2 Z"
      id="rect4" />
   <path
      d="M16.3633 25.4434C15.169 25.4434 14.1855 26.4268 14.1855 27.6211C14.1855 28.8154 15.169 29.7988 16.3633 29.7988C17.5575 29.7988 18.543 28.8154 18.543 27.6211C18.543 26.4268 17.5576 25.4434 16.3633 25.4434ZM16.3633 26.9434C16.7469 26.9434 17.043 27.2375 17.043 27.6211C17.043 28.0048 16.747 28.2988 16.3633 28.2988C15.9796 28.2988 15.6855 28.0048 15.6855 27.6211C15.6855 27.2375 15.9797 26.9434 16.3633 26.9434Z"
      fill="#DCA135" id="path6" />
   <path
      d="M24.1719 25.4434C22.9776 25.4434 21.9922 26.4268 21.9922 27.6211C21.9922 28.8154 22.9777 29.7988 24.1719 29.7988C25.3661 29.7988 26.3496 28.8154 26.3496 27.6211C26.3496 26.4269 25.3662 25.4434 24.1719 25.4434ZM24.1719 26.9434C24.5556 26.9434 24.8496 27.2375 24.8496 27.6211C24.8496 28.0048 24.5556 28.2988 24.1719 28.2988C23.7883 28.2988 23.4922 28.0048 23.4922 27.6211C23.4922 27.2376 23.7883 26.9434 24.1719 26.9434Z"
      fill="#DCA135" id="path8" />
   <path
      d="M29.9941 13.6406L15.2617 13.6426C14.8475 13.6427 14.5117 13.9784 14.5117 14.3926C14.5117 14.8068 14.8475 15.1426 15.2617 15.1426L28.832 15.1406L27.6738 19.4141C27.4255 20.3336 26.5964 20.9746 25.6406 20.9746H16.7988C16.3846 20.9746 16.0488 21.3104 16.0488 21.7246C16.0488 22.1388 16.3846 22.4746 16.7988 22.4746H25.6406C27.2704 22.4746 28.6981 21.3727 29.1211 19.8066L30.5371 14.5859C30.6272 14.1453 30.4945 13.7044 29.9941 13.6406Z"
      fill="#DCA135" id="path10" />
   <path
      d="M9 9.25C8.80109 9.25 8.61032 9.32902 8.46967 9.46967C8.32902 9.61032 8.25 9.80109 8.25 10C8.25 10.1989 8.32902 10.3897 8.46967 10.5303C8.61032 10.671 8.80109 10.75 9 10.75H10.7793C10.8871 10.75 10.9852 10.8312 11.0059 10.9434C11.0064 10.9492 11.0071 10.9551 11.0078 10.9609L13.3438 22.168C13.6949 23.8336 15.1771 25.0352 16.8789 25.0352H26.3203C26.5192 25.0352 26.71 24.9561 26.8506 24.8155C26.9913 24.6748 27.0703 24.4841 27.0703 24.2852C27.0703 24.0862 26.9913 23.8955 26.8506 23.7548C26.71 23.6142 26.5192 23.5352 26.3203 23.5352H16.8789C15.8814 23.5352 15.0191 22.8376 14.8125 21.8613V21.8593L12.4805 10.6719C12.3297 9.85546 11.6144 9.25 10.7793 9.25H9Z"
      fill="#DCA135" id="path12" />
</svg>