<?xml version="1.0" encoding="UTF-8" standalone="no"?>
<svg viewBox="0 0 32 32">
   <path
      d="M 4,14.75 A 1.25,1.25 0 0 0 2.75,16 1.25,1.25 0 0 0 4,17.25 H 28 A 1.25,1.25 0 0 0 29.25,16 1.25,1.25 0 0 0 28,14.75 Z" />
   <path
      d="M 4,6.75 A 1.25,1.25 0 0 0 2.75,8 1.25,1.25 0 0 0 4,9.25 H 28 A 1.25,1.25 0 0 0 29.25,8 1.25,1.25 0 0 0 28,6.75 Z" />
   <path
      d="M 4,22.75 A 1.25,1.25 0 0 0 2.75,24 1.25,1.25 0 0 0 4,25.25 H 28 A 1.25,1.25 0 0 0 29.25,24 1.25,1.25 0 0 0 28,22.75 Z" />
</svg>