<?xml version="1.0" encoding="UTF-8" standalone="no"?>
<svg viewBox="0 0 32 32">
   <path
      d="M 4 2.75 A 1.25 1.25 0 0 0 3.1152344 3.1152344 A 1.25 1.25 0 0 0 3.1152344 4.8847656 L 14.230469 16 L 3.1152344 27.115234 A 1.25 1.25 0 0 0 3.1152344 28.884766 A 1.25 1.25 0 0 0 4.8847656 28.884766 L 16 17.769531 L 27.115234 28.884766 A 1.25 1.25 0 0 0 28.884766 28.884766 A 1.25 1.25 0 0 0 28.884766 27.115234 L 17.769531 16 L 28.884766 4.8847656 A 1.25 1.25 0 0 0 28.884766 3.1152344 A 1.25 1.25 0 0 0 28 2.75 A 1.25 1.25 0 0 0 27.115234 3.1152344 L 16 14.230469 L 4.8847656 3.1152344 A 1.25 1.25 0 0 0 4 2.75 z " />
</svg>