<?xml version="1.0" encoding="UTF-8" standalone="no"?>
<svg viewBox="0 0 40 40">
   <path
      d="M 0 0 L 0 40 L 5 40 L 35 40 L 40 40 L 40 0 L 0 0 z M 2 2 L 38 2 L 38 38 L 34.861328 38 C 34.425329 34.760548 32.944528 31.729684 30.607422 29.392578 C 27.794422 26.579578 23.9782 25 20 25 C 16.0218 25 12.205578 26.579578 9.3925781 29.392578 C 7.0554304 31.729684 5.5746602 34.760548 5.1386719 38 L 2 38 L 2 2 z " />
   <path d="m 20,22 c 3.866,0 7,-3.134 7,-7 0,-3.866 -3.134,-7 -7,-7 -3.866,0 -7,3.134 -7,7 0,3.866 3.134,7 7,7 z" />
</svg>